<svg id="Group_136" data-name="Group 136" xmlns="http://www.w3.org/2000/svg" width="68" height="68" viewBox="0 0 68 68">
  <path id="Path_785" data-name="Path 785" d="M34,0A34,34,0,1,1,0,34,34,34,0,0,1,34,0Z" fill="#2644b4"/>
  <g id="Group_134" data-name="Group 134" transform="translate(5.964 5.476)">
    <path id="Path_255" data-name="Path 255" d="M479.513,2387.013a28.3,28.3,0,1,1,28.3-28.3A28.329,28.329,0,0,1,479.513,2387.013Zm0-54.777a26.481,26.481,0,1,0,26.481,26.481A26.511,26.511,0,0,0,479.513,2332.236Z" transform="translate(-451.217 -2330.42)" fill="#fff"/>
  </g>
  <g id="Group_135" data-name="Group 135" transform="translate(17.621 21.827)">
    <path id="Path_256" data-name="Path 256" d="M475.423,2378.321q0,1.268-1.143,1.269t-1.143-1.269v-19.169a6.8,6.8,0,0,1-2.825,1.428q-1.269,0-1.269-1.175,0-.6.921-.92a6.717,6.717,0,0,0,3.491-2.475,1.305,1.305,0,0,1,1.111-.667q.857,0,.857.762Z" transform="translate(-469.044 -2355.311)" fill="#f6f6f6"/>
    <path id="Path_257" data-name="Path 257" d="M498.636,2356.533a7.4,7.4,0,0,1-.285,1.4l-5.491,20.247a2.285,2.285,0,0,1-.444.825q-.445.571-.793.571-.889,0-1.27-1.4l-5.49-20.247a7.359,7.359,0,0,1-.286-1.4q0-1.238,1.047-1.238a1.07,1.07,0,0,1,.762.413,1.919,1.919,0,0,1,.508.825l4.729,17.519,4.729-17.519q.317-1.238,1.237-1.238Q498.636,2355.295,498.636,2356.533Z" transform="translate(-474.222 -2355.295)" fill="#f6f6f6"/>
    <path id="Path_258" data-name="Path 258" d="M513.63,2378.321q0,1.268-1.143,1.269t-1.143-1.269v-19.169a6.8,6.8,0,0,1-2.825,1.428q-1.27,0-1.269-1.175,0-.6.921-.92a6.719,6.719,0,0,0,3.491-2.475,1.305,1.305,0,0,1,1.111-.667q.857,0,.857.762Z" transform="translate(-481.78 -2355.311)" fill="#f6f6f6"/>
  </g>
</svg>
