<svg id="Group_119" data-name="Group 119" xmlns="http://www.w3.org/2000/svg" width="68" height="68" viewBox="0 0 68 68">
  <circle id="Ellipse_5" data-name="Ellipse 5" cx="34" cy="34" r="34" fill="#141b35"/>
  <g id="Group_117" data-name="Group 117" transform="translate(5.704 5.704)">
    <path id="Path_239" data-name="Path 239" d="M203.609,2387.354a28.3,28.3,0,1,1,28.3-28.3A28.329,28.329,0,0,1,203.609,2387.354Zm0-54.777a26.48,26.48,0,1,0,26.48,26.48A26.51,26.51,0,0,0,203.609,2332.577Z" transform="translate(-175.313 -2330.761)" fill="#fff"/>
  </g>
  <g id="Group_118" data-name="Group 118" transform="translate(13.854 24.573)">
    <path id="Path_240" data-name="Path 240" d="M198.51,2376.938q0,.888-1.085.887h-8.453a.958.958,0,0,1-1.084-1.084v-16.266q0-1.06.912-1.06.887,0,.887,1.06v14.861q0,.715.69.715h7.048Q198.51,2376.05,198.51,2376.938Z" transform="translate(-187.888 -2359.415)" fill="#f6f6f6"/>
    <path id="Path_241" data-name="Path 241" d="M209.167,2377.185q0,1.084-.887,1.085-.912,0-.912-1.085v-16.709q0-1.06.912-1.06.887,0,.887,1.06Z" transform="translate(-194.381 -2359.415)" fill="#f6f6f6"/>
    <path id="Path_242" data-name="Path 242" d="M224.236,2360.376a5.7,5.7,0,0,1-.222,1.084l-4.264,15.724a1.769,1.769,0,0,1-.345.641q-.346.444-.616.444-.691,0-.986-1.085l-4.263-15.724a5.7,5.7,0,0,1-.222-1.084q0-.961.813-.961a.829.829,0,0,1,.591.321,1.471,1.471,0,0,1,.394.641l3.673,13.6,3.672-13.6q.246-.961.961-.961Q224.236,2359.415,224.236,2360.376Z" transform="translate(-196.365 -2359.415)" fill="#f6f6f6"/>
    <path id="Path_243" data-name="Path 243" d="M243.015,2377.135q0,.888-1.035.887h-8.5a.959.959,0,0,1-1.085-1.084v-15.847a.958.958,0,0,1,1.085-1.084h8.5q1.035,0,1.035.911,0,.888-1.035.887h-7.1a.61.61,0,0,0-.69.69v5.545h6.457q1.084,0,1.084.887t-1.084.887h-6.457v5.717a.621.621,0,0,0,.69.715h7.1Q243.015,2376.248,243.015,2377.135Z" transform="translate(-202.723 -2359.613)" fill="#f6f6f6"/>
  </g>
</svg>
