<svg id="Group_241" data-name="Group 241" xmlns="http://www.w3.org/2000/svg" width="70" height="70" viewBox="0 0 70 70">
  <circle id="Ellipse_21" data-name="Ellipse 21" cx="35" cy="35" r="35" fill="#141b35"/>
  <g id="Group_236" data-name="Group 236" transform="translate(5.752 5.438)">
    <path id="Path_339" data-name="Path 339" d="M66.924,159.471a29.3,29.3,0,1,1,29.3-29.3A29.329,29.329,0,0,1,66.924,159.471Zm0-56.713A27.416,27.416,0,1,0,94.34,130.175,27.447,27.447,0,0,0,66.924,102.758Z" transform="translate(-37.628 -100.878)" fill="#49b5f2"/>
  </g>
  <g id="Group_240" data-name="Group 240" transform="translate(19.644 18.948)">
    <g id="Group_239" data-name="Group 239">
      <g id="Group_237" data-name="Group 237">
        <path id="Path_340" data-name="Path 340" d="M60.075,138.868a11.43,11.43,0,0,0,14.985,2.156l2.583,3.035a2.521,2.521,0,0,0,.517,2.278l4.327,5.082a2.526,2.526,0,0,0,3.847-3.274l-4.327-5.083a2.519,2.519,0,0,0-2.165-.873l-2.583-3.035a11.452,11.452,0,1,0-17.184-.286Zm3.169-13.952A8.57,8.57,0,1,1,62.273,137,8.573,8.573,0,0,1,63.245,124.916Z" transform="translate(-57.348 -119.985)" fill="#49b5f2"/>
      </g>
      <g id="Group_238" data-name="Group 238" transform="translate(5.627 7.836)">
        <circle id="Ellipse_22" data-name="Ellipse 22" cx="1.835" cy="1.835" r="1.835" fill="#49b5f2"/>
      </g>
    </g>
  </g>
</svg>
