<svg id="Group_235" data-name="Group 235" xmlns="http://www.w3.org/2000/svg" width="70" height="68.467" viewBox="0 0 70 68.467">
  <ellipse id="Ellipse_20" data-name="Ellipse 20" cx="35" cy="34.233" rx="35" ry="34.233" fill="#141b35"/>
  <g id="Group_232" data-name="Group 232" transform="translate(5.81 5.64)">
    <path id="Path_337" data-name="Path 337" d="M1031.311,158.24c-16.154,0-29.3-12.8-29.3-28.529s13.142-28.53,29.3-28.53,29.3,12.8,29.3,28.53S1047.465,158.24,1031.311,158.24Zm0-55.229c-15.118,0-27.416,11.977-27.416,26.7s12.3,26.7,27.416,26.7,27.416-11.977,27.416-26.7S1046.429,103.012,1031.311,103.012Z" transform="translate(-1002.015 -101.181)" fill="#ff0"/>
  </g>
  <g id="Group_234" data-name="Group 234" transform="translate(21.246 17.736)">
    <g id="Group_233" data-name="Group 233">
      <path id="Path_338" data-name="Path 338" d="M1048.237,125.074v-5.749h-20.9v5.749a5.688,5.688,0,0,0,0,10.347v7.649c0,3.728,4.589,6.648,10.448,6.648s10.447-2.92,10.447-6.648v-7.649a5.688,5.688,0,0,0,0-10.347Zm-22.32,5.174a3.78,3.78,0,0,1,1.425-2.942v5.883A3.777,3.777,0,0,1,1025.917,130.248Zm20.42,12.822c0,2.573-3.914,4.749-8.547,4.749s-8.548-2.175-8.548-4.749V121.225h17.1V143.07Zm1.9-9.881v-5.883a3.749,3.749,0,0,1,0,5.883Z" transform="translate(-1024.018 -119.325)" fill="#ff0"/>
      <rect id="Rectangle_63" data-name="Rectangle 63" width="9.498" height="1.9" transform="translate(9.023 32.767)" fill="#ff0"/>
    </g>
  </g>
</svg>
