<svg xmlns="http://www.w3.org/2000/svg" width="47.252" height="47.252" viewBox="0 0 47.252 47.252">
  <g id="Group_275" data-name="Group 275" transform="translate(0 0)">
    <g id="Group_269" data-name="Group 269">
      <path id="Path_765" data-name="Path 765" d="M257.336,1263.035a23.626,23.626,0,1,1,23.626-23.626A23.653,23.653,0,0,1,257.336,1263.035Zm0-45.736a22.11,22.11,0,1,0,22.11,22.11A22.135,22.135,0,0,0,257.336,1217.3Z" transform="translate(-233.71 -1215.783)" fill="#fff"/>
    </g>
    <g id="Group_274" data-name="Group 274" transform="translate(14.347 8.692)">
      <g id="Group_270" data-name="Group 270" transform="translate(1.784)">
        <path id="Path_766" data-name="Path 766" d="M273.588,1236.68a7.613,7.613,0,0,0-15.226,0v1.522h3.132v-1.522a4.481,4.481,0,0,1,8.961,0v4.125h3.132Z" transform="translate(-258.362 -1229.067)" fill="#f6f6f6"/>
      </g>
      <g id="Group_271" data-name="Group 271" transform="translate(0 11.738)">
        <path id="Path_767" data-name="Path 767" d="M257.25,1261.052h15.566a1.613,1.613,0,0,0,1.613-1.613V1248.62a1.613,1.613,0,0,0-1.613-1.614h-.171v1.661h-3.132v-1.661H257.25a1.614,1.614,0,0,0-1.614,1.614v10.819A1.613,1.613,0,0,0,257.25,1261.052Zm6-9.024a1.783,1.783,0,1,1,2.866,1.409l.875,4.377h-3.915l.875-4.377A1.773,1.773,0,0,1,263.249,1252.028Z" transform="translate(-255.636 -1247.006)" fill="#f6f6f6"/>
      </g>
      <g id="Group_272" data-name="Group 272" transform="translate(13.877 11.738)">
        <rect id="Rectangle_79" data-name="Rectangle 79" width="3.132" height="1.661" fill="#f6f6f6"/>
      </g>
      <g id="Group_273" data-name="Group 273" transform="translate(13.877 11.738)">
        <rect id="Rectangle_80" data-name="Rectangle 80" width="3.132" height="1.661" fill="#f6f6f6"/>
      </g>
    </g>
  </g>
</svg>
