<svg id="Group_46" data-name="Group 46" xmlns="http://www.w3.org/2000/svg" width="54.199" height="52.199" viewBox="0 0 54.199 52.199">
  <g id="Group_41" data-name="Group 41">
    <path id="Path_141" data-name="Path 141" d="M2621.658,60.636c-14.942,0-27.1-11.708-27.1-26.1s12.157-26.1,27.1-26.1,27.1,11.708,27.1,26.1S2636.6,60.636,2621.658,60.636Zm0-50.524c-13.984,0-25.36,10.957-25.36,24.425s11.376,24.424,25.36,24.424S2647.019,48,2647.019,34.537,2635.642,10.112,2621.658,10.112Z" transform="translate(-2594.559 -8.437)" fill="#fff"/>
  </g>
  <g id="Group_45" data-name="Group 45" transform="translate(13.953 12.927)">
    <g id="Group_42" data-name="Group 42" transform="translate(0 0.472)">
      <path id="Path_142" data-name="Path 142" d="M2614.667,41.067a13.52,13.52,0,0,0,2,1.874c1.024.774,2.052,1.541,3.123,2.249,4.695,2.932,8.736,3.693,10.237,3.339a.2.2,0,0,1,.054,0,10.415,10.415,0,0,0,3.835-2.2,13.516,13.516,0,0,0,1.7-1.72c.025-.03.047-.063.079-.106l-8.257-2.874c-.03.033-.053.059-.076.083a3.3,3.3,0,0,1-1.154.823,4.351,4.351,0,0,1-2.472-.561c-.789-.629-7.74-7.18-7.783-7.236a3.545,3.545,0,0,1-.651-1.335,2.372,2.372,0,0,1,.049-1.32,2.653,2.653,0,0,1,.672-1.053.2.2,0,0,0,.052-.251c-.309-.8-.609-1.607-.912-2.411q-.319-.849-.638-1.7-.49-1.3-.984-2.6c-.149-.394-.53-1.247-.547-1.239-.255.118-.515.228-.764.358a8.418,8.418,0,0,0-1.958,1.385,6.024,6.024,0,0,0-1.133,1.447C2608.46,27.245,2606.8,31.506,2614.667,41.067Z" transform="translate(-2608.512 -22.832)" fill="#f4f4f4"/>
    </g>
    <g id="Group_43" data-name="Group 43" transform="translate(19.252 16.819)">
      <path id="Path_143" data-name="Path 143" d="M2636.274,43.751c-.009-.416-.015-.832-.027-1.248-.007-.242-.024-.485-.036-.728l-.081-.234a1.765,1.765,0,0,0-.118-.175,1.382,1.382,0,0,0-.611-.428c-1.145-.4-2.29-.8-3.438-1.186-.5-.171-1.014-.329-1.524-.482a2.128,2.128,0,0,0-.891-.073.689.689,0,0,0-.45.223c-.408.45-.829.888-1.245,1.331-.027.03-.053.061-.088.1l8.507,3C2636.273,43.811,2636.274,43.781,2636.274,43.751Z" transform="translate(-2627.765 -39.179)" fill="#f4f4f4"/>
    </g>
    <g id="Group_44" data-name="Group 44" transform="translate(5.27)">
      <path id="Path_144" data-name="Path 144" d="M2614.725,25.185q.726,1.969,1.46,3.936c.1.281.221.558.336.835.055.132.116.261.178.389a.2.2,0,0,0,.254.131.574.574,0,0,0,.159-.054,2.185,2.185,0,0,0,.592-.46,2,2,0,0,0,.425-.576c.1-.23.188-.466.287-.7a.287.287,0,0,0,0-.226q-.248-.677-.49-1.355-.714-1.986-1.424-3.974a.747.747,0,0,0-.323-.4,1.714,1.714,0,0,0-.27-.138,3.333,3.333,0,0,0-1.657-.2.642.642,0,0,1-.076,0l-.341.117-.051.062c.014.041.028.084.043.126C2614.125,23.526,2614.421,24.357,2614.725,25.185Z" transform="translate(-2613.782 -22.36)" fill="#f4f4f4"/>
    </g>
  </g>
</svg>
