<svg id="Group_182" data-name="Group 182" xmlns="http://www.w3.org/2000/svg" width="61.026" height="61.026" viewBox="0 0 61.026 61.026">
  <path id="Path_768" data-name="Path 768" d="M30.513,0A30.513,30.513,0,1,1,0,30.513,30.513,30.513,0,0,1,30.513,0Z" fill="#ff82d5"/>
  <g id="Group_180" data-name="Group 180" transform="translate(5.041 4.881)">
    <path id="Path_291" data-name="Path 291" d="M479.343,1222.793a25.429,25.429,0,1,1,25.43-25.429A25.458,25.458,0,0,1,479.343,1222.793Zm0-49.227a23.8,23.8,0,1,0,23.8,23.8A23.825,23.825,0,0,0,479.343,1173.567Z" transform="translate(-453.914 -1171.935)" fill="#fff"/>
  </g>
  <g id="Group_181" data-name="Group 181" transform="translate(15.738 19.028)">
    <path id="Path_292" data-name="Path 292" d="M483.161,1215.377l.069.067.069-.067,12.917-12.7c7.358-7.973-7.709-18.035-12.986-6.671-5.276-11.364-20.343-1.3-12.985,6.671Z" transform="translate(-468.258 -1190.906)" fill="#f6f6f6"/>
  </g>
</svg>
