<svg id="Group_106" data-name="Group 106" xmlns="http://www.w3.org/2000/svg" width="68" height="68" viewBox="0 0 68 68">
  <circle id="Ellipse_2" data-name="Ellipse 2" cx="34" cy="34" r="34" fill="#141b35"/>
  <g id="Group_105" data-name="Group 105" transform="translate(5.81 5.64)">
    <path id="Path_230" data-name="Path 230" d="M1030.311,2387.259a28.3,28.3,0,1,1,28.3-28.3A28.328,28.328,0,0,1,1030.311,2387.259Zm0-54.777a26.481,26.481,0,1,0,26.48,26.481A26.51,26.51,0,0,0,1030.311,2332.482Z" transform="translate(-1002.015 -2330.666)" fill="#fff"/>
  </g>
  <path id="Path_231" data-name="Path 231" d="M1046.277,2364.211a9.066,9.066,0,1,0-17.45,0c-3.357,1.838-5.523,4.707-5.523,7.927,0,5.536,6.391,10.038,14.248,10.038s14.247-4.5,14.247-10.038C1051.8,2368.919,1049.633,2366.049,1046.277,2364.211Zm-15.849-2.435a7.283,7.283,0,1,1,.187,1.6A7.131,7.131,0,0,1,1030.428,2361.777Zm7.124,18.457c-6.785,0-12.305-3.631-12.305-8.1,0-2.45,1.67-4.645,4.292-6.131a9.057,9.057,0,0,0,16.026,0c2.622,1.486,4.292,3.681,4.292,6.131C1049.857,2376.6,1044.337,2380.234,1037.552,2380.234Z" transform="translate(-1003.535 -2332.617)" fill="#f6f6f6"/>
</svg>
