<svg xmlns="http://www.w3.org/2000/svg" width="71" height="71" viewBox="0 0 71 71">
  <g id="Group_440" data-name="Group 440" transform="translate(3869 -1389)">
    <circle id="Ellipse_39" data-name="Ellipse 39" cx="35.5" cy="35.5" r="35.5" transform="translate(-3869 1389)" fill="#a71621"/>
    <g id="Group_439" data-name="Group 439" transform="translate(-395.845 9.759)">
      <g id="Group_56" data-name="Group 56" transform="translate(-6059.714 1086.253)">
        <g id="Group_52" data-name="Group 52">
          <path id="Path_149" data-name="Path 149" d="M2621.658,356.187a27.1,27.1,0,1,1,27.1-27.1A27.13,27.13,0,0,1,2621.658,356.187Zm0-52.46a25.361,25.361,0,1,0,25.361,25.361A25.389,25.389,0,0,0,2621.658,303.727Z" fill="#fff"/>
        </g>
        <g id="Group_55" data-name="Group 55">
          <g id="Group_53" data-name="Group 53">
            <path id="Path_150" data-name="Path 150" d="M2620.469,339.76c4-1.887,6.781-8.125,5.411-12.127h-10.211v4.245h5.65a5.03,5.03,0,0,1-4.456,4.346,6.378,6.378,0,0,1-6.84-3.3,6.791,6.791,0,0,1,.944-7.742,6.326,6.326,0,0,1,3.44-1.92,6.193,6.193,0,0,1,5.146,1.259l3.194-2.932c-2.986-3.456-9.426-3.841-13.478-.835a11.141,11.141,0,0,0-3.058,14.5A11.023,11.023,0,0,0,2620.469,339.76Z" fill="#f4f4f4"/>
          </g>
          <g id="Group_54" data-name="Group 54">
            <path id="Path_151" data-name="Path 151" d="M2635.043,324h-2.63v3.792h-3.77v2.736h3.851v3.828h2.648v-3.914h3.652V327.7h-3.751Z" fill="#f4f4f4"/>
          </g>
        </g>
      </g>
    </g>
  </g>
</svg>
