<svg id="Group_122" data-name="Group 122" xmlns="http://www.w3.org/2000/svg" width="68" height="68" viewBox="0 0 68 68">
  <path id="Path_787" data-name="Path 787" d="M34,0A34,34,0,1,1,0,34,34,34,0,0,1,34,0Z" fill="#2644b4"/>
  <g id="Group_120" data-name="Group 120" transform="translate(6.234 5.64)">
    <path id="Path_244" data-name="Path 244" d="M617.676,2387.259a28.3,28.3,0,1,1,28.3-28.3A28.329,28.329,0,0,1,617.676,2387.259Zm0-54.777a26.481,26.481,0,1,0,26.48,26.481A26.511,26.511,0,0,0,617.676,2332.482Z" transform="translate(-589.379 -2330.666)" fill="#fff"/>
  </g>
  <g id="Group_121" data-name="Group 121" transform="translate(18.044 21.814)">
    <path id="Path_245" data-name="Path 245" d="M631.935,2355.307h-8.508q-4.316,0-8.632,0a7.28,7.28,0,0,0-7.341,7.292q-.023,4.171,0,8.343a7.177,7.177,0,0,0,5.641,7.023,18.78,18.78,0,0,0,3.281.209,3.635,3.635,0,0,1,2.6,1.061c1.1,1.115,2.22,2.219,3.328,3.33a1.359,1.359,0,0,0,2.209-.018c1.047-1.055,2.114-2.091,3.145-3.162a3.792,3.792,0,0,1,2.955-1.21,15.082,15.082,0,0,0,2.392-.058,7.267,7.267,0,0,0,6.341-7.325q.011-4.068,0-8.136a6.806,6.806,0,0,0-.043-.948A7.322,7.322,0,0,0,631.935,2355.307Zm-1.144,11.376a9.9,9.9,0,0,1-2.617,4.218,14.435,14.435,0,0,1-3.942,2.795,1.614,1.614,0,0,1-1.474.074,12.325,12.325,0,0,1-6.616-6.688,4.117,4.117,0,0,1,3.083-5.682,3.9,3.9,0,0,1,3.443.964c.257.225.477.493.75.78a4.048,4.048,0,0,1,4.121-1.75A4.1,4.1,0,0,1,630.792,2366.683Z" transform="translate(-607.444 -2355.307)" fill="#f6f6f6"/>
  </g>
</svg>
