<svg id="Group_104" data-name="Group 104" xmlns="http://www.w3.org/2000/svg" width="68" height="68" viewBox="0 0 68 68">
  <path id="Path_789" data-name="Path 789" d="M34,0A34,34,0,1,1,0,34,34,34,0,0,1,34,0Z" fill="#2644b4"/>
  <g id="Group_102" data-name="Group 102" transform="translate(6.234 5.438)">
    <path id="Path_228" data-name="Path 228" d="M893.19,2386.956a28.3,28.3,0,1,1,28.3-28.3A28.328,28.328,0,0,1,893.19,2386.956Zm0-54.777a26.481,26.481,0,1,0,26.48,26.481A26.511,26.511,0,0,0,893.19,2332.178Z" transform="translate(-864.894 -2330.363)" fill="#fff"/>
  </g>
  <g id="Group_103" data-name="Group 103" transform="translate(19.02 23.453)">
    <path id="Path_229" data-name="Path 229" d="M911.212,2357.772H888.177a3.748,3.748,0,0,0-3.749,3.748v12.44a3.749,3.749,0,0,0,3.749,3.748h3.2l6.347,5.4a1.068,1.068,0,0,0,1.758-.759l.066-1.288.171-3.349h11.491a3.748,3.748,0,0,0,3.749-3.748v-12.44A3.748,3.748,0,0,0,911.212,2357.772Zm-19.542,12.445a2.426,2.426,0,1,1,2.425-2.426A2.426,2.426,0,0,1,891.67,2370.217Zm8.055,0a2.426,2.426,0,1,1,2.426-2.426A2.426,2.426,0,0,1,899.725,2370.217Zm8.055,0a2.426,2.426,0,1,1,2.425-2.426A2.426,2.426,0,0,1,907.78,2370.217Z" transform="translate(-884.428 -2357.772)" fill="#f6f6f6"/>
  </g>
</svg>
