<svg id="Group_109" data-name="Group 109" xmlns="http://www.w3.org/2000/svg" width="68" height="68" viewBox="0 0 68 68">
  <circle id="Ellipse_3" data-name="Ellipse 3" cx="34" cy="34" r="34" fill="#141b35"/>
  <g id="Group_107" data-name="Group 107" transform="translate(5.906 5.438)">
    <path id="Path_232" data-name="Path 232" d="M66.155,2386.956a28.3,28.3,0,1,1,28.3-28.3A28.328,28.328,0,0,1,66.155,2386.956Zm0-54.777a26.481,26.481,0,1,0,26.481,26.481A26.511,26.511,0,0,0,66.155,2332.178Z" transform="translate(-37.859 -2330.363)" fill="#fff"/>
  </g>
  <g id="Group_108" data-name="Group 108" transform="translate(20.59 16.324)">
    <path id="Path_233" data-name="Path 233" d="M62.142,2365.28h1.686v10.178a2.5,2.5,0,0,0,2.5,2.5H82.015a2.5,2.5,0,0,0,2.5-2.5V2365.28h2.065a1.891,1.891,0,0,0,1.445-3.109l-12.22-14.5a1.891,1.891,0,0,0-2.891,0L60.7,2362.17A1.891,1.891,0,0,0,62.142,2365.28Zm7.193,5.287a1.887,1.887,0,0,1,1.887-1.887h5.9a1.887,1.887,0,0,1,1.887,1.887v5.891H69.335Z" transform="translate(-60.248 -2347)" fill="#f6f6f6"/>
  </g>
</svg>
