<svg xmlns="http://www.w3.org/2000/svg" width="54.198" height="54.198" viewBox="0 0 54.198 54.198">
  <g id="Group_302" data-name="Group 302" transform="translate(-2594.559 -448.764)">
    <g id="Group_65" data-name="Group 65">
      <g id="Group_64" data-name="Group 64">
        <path id="Path_157" data-name="Path 157" d="M2621.658,502.962a27.1,27.1,0,1,1,27.1-27.1A27.129,27.129,0,0,1,2621.658,502.962Zm0-52.46a25.36,25.36,0,1,0,25.361,25.361A25.389,25.389,0,0,0,2621.658,450.5Z" fill="#fff"/>
      </g>
    </g>
    <path id="Path_158" data-name="Path 158" d="M2621.781,462.831a17.445,17.445,0,0,1,11.15,3.8,11.691,11.691,0,0,1,4.281,6.754,10.22,10.22,0,0,1-1.753,8.216,24.165,24.165,0,0,1-5.064,5.133,56.326,56.326,0,0,1-8.026,5.369,5.686,5.686,0,0,1-1.176.477c-.572.159-.884-.1-.834-.694.054-.627.167-1.249.262-1.872.193-1.261-.168-1.78-1.437-1.968a18.316,18.316,0,0,1-5.626-1.709,13.033,13.033,0,0,1-6.647-6.827,10.4,10.4,0,0,1,1.928-11.118,15.493,15.493,0,0,1,8.687-5.081A17.844,17.844,0,0,1,2621.781,462.831Zm-.11,12.337.1-.034c.078.1.159.19.232.29q1.4,1.9,2.8,3.8a.831.831,0,0,0,.968.38.77.77,0,0,0,.551-.866q0-2.961,0-5.922c0-.594-.284-.937-.778-.943-.517-.007-.8.329-.8.954,0,1.058,0,2.116,0,3.174,0,.128-.015.256-.024.383-.636-.721-1.178-1.455-1.72-2.189-.49-.664-.976-1.331-1.473-1.989a.754.754,0,0,0-.923-.285.717.717,0,0,0-.507.74c0,2.077,0,4.154.005,6.231a.746.746,0,0,0,.766.751.784.784,0,0,0,.808-.723c.016-.206,0-.413,0-.619Zm7.436,2.895v-1.509h.45c.593,0,1.187.013,1.779,0a.758.758,0,0,0,.807-.832.744.744,0,0,0-.838-.752c-.387,0-.774,0-1.161,0h-1.035v-1.51c.74,0,1.447.006,2.155,0,.569-.007.883-.3.88-.8s-.31-.783-.883-.784q-1.451,0-2.9,0a.815.815,0,0,0-.9.909q-.006,2.979,0,5.956a.8.8,0,0,0,.907.9q1.451.006,2.9,0c.573,0,.882-.285.879-.79s-.314-.784-.884-.786Zm-15.73,0c0-1.692,0-3.315,0-4.938a3,3,0,0,0-.069-.689.72.72,0,0,0-.66-.563.73.73,0,0,0-.795.426,1.362,1.362,0,0,0-.1.562q-.011,2.919,0,5.837c0,.648.3.939.948.941q1.412,0,2.822,0c.6,0,.929-.287.922-.792s-.333-.783-.931-.784Zm5.456-2.3h0c0-1.018,0-2.036,0-3.053a.76.76,0,0,0-.5-.789.812.812,0,0,0-1.095.853q-.011,2.976,0,5.951a.806.806,0,0,0,.819.916c.48,0,.769-.332.773-.9C2618.837,477.743,2618.833,476.751,2618.833,475.76Z" fill="#fff"/>
  </g>
</svg>
