<svg xmlns="http://www.w3.org/2000/svg" width="54.198" height="54.198" viewBox="0 0 54.198 54.198">
  <g id="Group_50" data-name="Group 50" transform="translate(-2594.559 -155.213)">
    <g id="Group_48" data-name="Group 48">
      <path id="Path_146" data-name="Path 146" d="M2621.658,209.411a27.1,27.1,0,1,1,27.1-27.1A27.129,27.129,0,0,1,2621.658,209.411Zm0-52.459a25.36,25.36,0,1,0,25.361,25.36A25.388,25.388,0,0,0,2621.658,156.952Z" fill="#fff"/>
    </g>
    <g id="Group_49" data-name="Group 49">
      <path id="Path_147" data-name="Path 147" d="M2613.814,185.041c1.037-.026,2.078.048,3.11-.025.83-.058,1.02.271,1,1.03-.049,1.527-.009,3.056-.016,4.585-.011,2.539-.028,4.914-.043,7.453h6.055V185.011h4.74c.256-2.007.5-3.926.758-5.948-1.708,0-3.231-.02-4.754.01-.558.011-.782-.155-.761-.738.037-1.035,0-2.074.015-3.11a1.835,1.835,0,0,1,2.029-2.025c.955-.011,1.911-.022,2.866,0,.519.014.73-.159.718-.7-.03-1.337-.034-2.675,0-4.011.016-.591-.215-.752-.766-.742-1.446.026-2.894-.018-4.339.016a6.452,6.452,0,0,0-6.337,5.144,21.414,21.414,0,0,0-.178,3.748c-.021.781,0,1.563,0,2.411-1.447,0-2.78.014-4.112-.007-.529-.008-.723.193-.715.722.022,1.528.027,3.057,0,4.585C2613.066,184.93,2613.312,185.054,2613.814,185.041Z" fill="#f4f4f4"/>
    </g>
  </g>
</svg>
