<svg id="Group_133" data-name="Group 133" xmlns="http://www.w3.org/2000/svg" width="68" height="68" viewBox="0 0 68 68">
  <circle id="Ellipse_7" data-name="Ellipse 7" cx="34" cy="34" r="34" fill="#141b35"/>
  <g id="Group_123" data-name="Group 123" transform="translate(5.964 5.476)">
    <path id="Path_246" data-name="Path 246" d="M755.028,2387.013a28.3,28.3,0,1,1,28.3-28.3A28.328,28.328,0,0,1,755.028,2387.013Zm0-54.777a26.481,26.481,0,1,0,26.48,26.481A26.51,26.51,0,0,0,755.028,2332.236Z" transform="translate(-726.732 -2330.42)" fill="#fff"/>
  </g>
  <g id="Group_132" data-name="Group 132" transform="translate(20.639 15.777)">
    <g id="Group_124" data-name="Group 124" transform="translate(6.628)">
      <path id="Path_247" data-name="Path 247" d="M765.843,2347.7a4.655,4.655,0,0,1,3.706,2.072,9.37,9.37,0,0,1,1.6,4.053h1.539c-.781-5.229-3.912-7.641-6.85-7.641-2.919,0-6.029,2.413-6.805,7.641h1.533C761.263,2349.631,763.624,2347.7,765.843,2347.7Z" transform="translate(-759.038 -2346.179)" fill="#f6f6f6"/>
    </g>
    <g id="Group_125" data-name="Group 125" transform="translate(6.444 9.308)">
      <path id="Path_248" data-name="Path 248" d="M758.778,2360.314c-.01.25-.016.5-.016.763a.758.758,0,1,0,1.516,0c0-.255.007-.5.017-.746a1.683,1.683,0,0,0-1.517-.016Z" transform="translate(-758.762 -2360.141)" fill="#f6f6f6"/>
    </g>
    <g id="Group_126" data-name="Group 126" transform="translate(18.935 9.308)">
      <path id="Path_249" data-name="Path 249" d="M777.5,2360.33c.011.245.017.493.017.746a.758.758,0,1,0,1.517,0c0-.26-.007-.513-.017-.763a1.683,1.683,0,0,0-1.517.016Z" transform="translate(-777.499 -2360.141)" fill="#f6f6f6"/>
    </g>
    <g id="Group_127" data-name="Group 127" transform="translate(0 7.641)">
      <path id="Path_250" data-name="Path 250" d="M750.965,2382.162h23.2a1.87,1.87,0,0,0,1.869-1.92l-1.414-20.782a1.869,1.869,0,0,0-1.869-1.818h-3.37a16.886,16.886,0,0,1,.169,1.839,1.693,1.693,0,1,1-1.517.016,15.038,15.038,0,0,0-.191-1.855H757.257a15.359,15.359,0,0,0-.184,1.855,1.695,1.695,0,1,1-1.517-.016,17.191,17.191,0,0,1,.168-1.839h-3.345a1.869,1.869,0,0,0-1.868,1.818l-1.414,20.782A1.87,1.87,0,0,0,750.965,2382.162Z" transform="translate(-749.096 -2357.641)" fill="#f6f6f6"/>
    </g>
    <g id="Group_128" data-name="Group 128" transform="translate(18.744 7.641)">
      <path id="Path_251" data-name="Path 251" d="M777.4,2359.5a1.687,1.687,0,0,1,1.517-.016,16.871,16.871,0,0,0-.169-1.839h-1.539A15.038,15.038,0,0,1,777.4,2359.5Z" transform="translate(-777.212 -2357.641)" fill="#f6f6f6"/>
    </g>
    <g id="Group_129" data-name="Group 129" transform="translate(18.744 7.641)">
      <path id="Path_252" data-name="Path 252" d="M777.4,2359.5a1.687,1.687,0,0,1,1.517-.016,16.871,16.871,0,0,0-.169-1.839h-1.539A15.038,15.038,0,0,1,777.4,2359.5Z" transform="translate(-777.212 -2357.641)" fill="#f6f6f6"/>
    </g>
    <g id="Group_130" data-name="Group 130" transform="translate(6.46 7.641)">
      <path id="Path_253" data-name="Path 253" d="M759.528,2359.308a1.688,1.688,0,0,1,.775.188,15.359,15.359,0,0,1,.184-1.855h-1.533a17.222,17.222,0,0,0-.168,1.839A1.679,1.679,0,0,1,759.528,2359.308Z" transform="translate(-758.786 -2357.641)" fill="#f6f6f6"/>
    </g>
    <g id="Group_131" data-name="Group 131" transform="translate(6.46 7.641)">
      <path id="Path_254" data-name="Path 254" d="M759.528,2359.308a1.688,1.688,0,0,1,.775.188,15.359,15.359,0,0,1,.184-1.855h-1.533a17.222,17.222,0,0,0-.168,1.839A1.679,1.679,0,0,1,759.528,2359.308Z" transform="translate(-758.786 -2357.641)" fill="#f6f6f6"/>
    </g>
  </g>
</svg>
