<svg id="Group_116" data-name="Group 116" xmlns="http://www.w3.org/2000/svg" width="68" height="68" viewBox="0 0 68 68">
  <path id="Path_786" data-name="Path 786" d="M34,0A34,34,0,1,1,0,34,34,34,0,0,1,34,0Z" fill="#2644b4"/>
  <g id="Group_110" data-name="Group 110" transform="translate(5.752 5.64)">
    <path id="Path_234" data-name="Path 234" d="M341.438,2387.259a28.3,28.3,0,1,1,28.3-28.3A28.328,28.328,0,0,1,341.438,2387.259Zm0-54.777a26.481,26.481,0,1,0,26.481,26.481A26.51,26.51,0,0,0,341.438,2332.482Z" transform="translate(-313.142 -2330.666)" fill="#fff"/>
  </g>
  <g id="Group_115" data-name="Group 115" transform="translate(17.428 21.234)">
    <g id="Group_111" data-name="Group 111" transform="translate(25.987 7.035)">
      <path id="Path_235" data-name="Path 235" d="M379.379,2377.411v-11.126a1.359,1.359,0,0,0-1.859-1.264l-6.65,2.632a1.359,1.359,0,0,0-.859,1.264v5.862a1.359,1.359,0,0,0,.859,1.263l6.65,2.633A1.359,1.359,0,0,0,379.379,2377.411Z" transform="translate(-370.011 -2364.925)" fill="#f6f6f6"/>
    </g>
    <g id="Group_112" data-name="Group 112" transform="translate(0 7.093)">
      <path id="Path_236" data-name="Path 236" d="M354.675,2365.01H353.7a5.872,5.872,0,0,1-10.384,0h-1a4.594,4.594,0,0,1-8.708,0h-1.079a1.388,1.388,0,0,0-1.5,1.232v11.269a1.388,1.388,0,0,0,1.5,1.232h22.147a1.388,1.388,0,0,0,1.5-1.232v-11.269A1.388,1.388,0,0,0,354.675,2365.01Z" transform="translate(-331.03 -2365.01)" fill="#f6f6f6"/>
    </g>
    <g id="Group_113" data-name="Group 113" transform="translate(3.183 1.675)">
      <path id="Path_237" data-name="Path 237" d="M339.5,2364.268a3.7,3.7,0,1,0-3.657-3.195A3.692,3.692,0,0,0,339.5,2364.268Zm0-5.2a1.5,1.5,0,0,1,1.5,1.5,1.568,1.568,0,0,1-.014.2,1.5,1.5,0,0,1-2.979,0,1.568,1.568,0,0,1-.014-.2A1.5,1.5,0,0,1,339.5,2359.073Z" transform="translate(-335.805 -2356.885)" fill="#f6f6f6"/>
    </g>
    <g id="Group_114" data-name="Group 114" transform="translate(12.982)">
      <path id="Path_238" data-name="Path 238" d="M355.077,2363.518a4.571,4.571,0,1,0-4.362-3.195A4.575,4.575,0,0,0,355.077,2363.518Zm0-6.675a2.1,2.1,0,1,1-2.1,2.1A2.1,2.1,0,0,1,355.077,2356.843Z" transform="translate(-350.503 -2354.371)" fill="#f6f6f6"/>
    </g>
  </g>
</svg>
