<svg xmlns="http://www.w3.org/2000/svg" width="54.199" height="54.199" viewBox="0 0 54.199 54.199">
  <g id="Group_62" data-name="Group 62" transform="translate(-2594.559 -595.539)">
    <g id="Group_58" data-name="Group 58">
      <path id="Path_153" data-name="Path 153" d="M2621.658,649.738a27.1,27.1,0,1,1,27.1-27.1A27.13,27.13,0,0,1,2621.658,649.738Zm0-52.46a25.361,25.361,0,1,0,25.361,25.36A25.389,25.389,0,0,0,2621.658,597.278Z" fill="#fff"/>
    </g>
    <g id="Group_61" data-name="Group 61">
      <g id="Group_59" data-name="Group 59">
        <path id="Path_154" data-name="Path 154" d="M2622.795,618.584a11.854,11.854,0,0,1,4.274-1.047c.116-.008.232-.022.346-.032a.457.457,0,0,0,.008-.08c-.007-.074-.016-.148-.025-.222a8.308,8.308,0,0,0-.526-2.1,9.2,9.2,0,0,0-2.435-3.475,11.712,11.712,0,0,0-10.109-2.714,12.849,12.849,0,0,0-3.024,1.044,10.026,10.026,0,0,0-2.915,2.1,9.292,9.292,0,0,0-2.132,3.684,8.568,8.568,0,0,0-.318,3.948,8.347,8.347,0,0,0,1.267,3.257,10.56,10.56,0,0,0,2.715,2.8,4.038,4.038,0,0,1,.349.277.8.8,0,0,1,.253.809c-.038.169-.09.335-.129.5q-.21.926-.414,1.854c-.033.148-.062.3-.092.447l.033.028.25-.153q1.352-.837,2.7-1.674a1.664,1.664,0,0,1,.961-.256c.312.013.624.033.933.069.748.088,1.494.188,2.24.283.082.01.164.014.261.022,0-.057,0-.095,0-.132a10.405,10.405,0,0,1,.1-2.43,8.079,8.079,0,0,1,.971-2.759A9.9,9.9,0,0,1,2622.795,618.584Zm-2.183-4.137a1.553,1.553,0,1,1-.03,3.1,1.553,1.553,0,0,1-1.574-1.561A1.594,1.594,0,0,1,2620.612,614.447Zm-8.042,0a1.553,1.553,0,1,1-.03,3.1,1.553,1.553,0,0,1-1.574-1.561A1.594,1.594,0,0,1,2612.57,614.447Z" fill="#f4f4f4"/>
      </g>
      <g id="Group_60" data-name="Group 60">
        <path id="Path_155" data-name="Path 155" d="M2636.876,626.162a7.211,7.211,0,0,0-.64-2.431,8.385,8.385,0,0,0-3.91-4.067,10.288,10.288,0,0,0-4.576-1.124,10.111,10.111,0,0,0-2.01.17,9.407,9.407,0,0,0-3.894,1.647,8.545,8.545,0,0,0-2.609,2.945,7.152,7.152,0,0,0-.805,4.283,7.021,7.021,0,0,0,.777,2.481,9.223,9.223,0,0,0,8.5,4.866,6.8,6.8,0,0,0,1.914-.308c.217-.069.44-.12.66-.177a2.647,2.647,0,0,1,1.759.125c.236.1.47.211.7.325.329.163.653.334.98.5.046.023.1.039.172.07a2.475,2.475,0,0,0-.187-.726,3.394,3.394,0,0,1-.175-.393,1.428,1.428,0,0,1-.078-.73,1.546,1.546,0,0,1,.226-.561,3.578,3.578,0,0,1,.578-.657c.243-.233.5-.458.72-.709A7.16,7.16,0,0,0,2636.876,626.162Zm-12.991-.051a1.418,1.418,0,1,1,1.417-1.409A1.4,1.4,0,0,1,2623.885,626.111Zm7,0a1.418,1.418,0,1,1,1.417-1.409A1.4,1.4,0,0,1,2630.884,626.111Z" fill="#f4f4f4"/>
      </g>
    </g>
  </g>
</svg>
