<?xml version="1.0" standalone="no"?>
<!DOCTYPE svg PUBLIC "-//W3C//DTD SVG 1.1//EN" "http://www.w3.org/Graphics/SVG/1.1/DTD/svg11.dtd" >
<svg xmlns="http://www.w3.org/2000/svg">
<metadata>
Created by FontForge 20120731 at Wed Aug 19 17:53:45 2015
 By Ads
</metadata>
<defs>
<font id="IM" horiz-adv-x="1024" >
  <font-face 
    font-family="IM"
    font-weight="500"
    font-stretch="normal"
    units-per-em="1024"
    panose-1="2 0 6 3 0 0 0 0 0 0"
    ascent="812"
    descent="-212"
    x-height="792"
    cap-height="597"
    bbox="34 -63 956 792"
    underline-thickness="50"
    underline-position="-100"
    unicode-range="U+0031-0078"
  />
<missing-glyph horiz-adv-x="374" 
d="M34 0v682h272v-682h-272zM68 34h204v614h-204v-614z" />
    <glyph glyph-name=".notdef" horiz-adv-x="374" 
d="M34 0v682h272v-682h-272zM68 34h204v614h-204v-614z" />
    <glyph glyph-name=".null" horiz-adv-x="0" 
 />
    <glyph glyph-name="nonmarkingreturn" horiz-adv-x="341" 
 />
    <glyph glyph-name="one" unicode="1" 
d="M395 367q42 -23 87.5 -23t84.5 21t62 58v-268q-2 0 -7 -1t-8 -1q-89 0 -153 62.5t-66 151.5z" />
    <glyph glyph-name="two" unicode="2" 
d="M410 153h-4q-1 0 -3.5 0.5t-4 0.5t-3.5 1v268q24 -36 62.5 -57.5t83.5 -21.5q46 0 88 23q-2 -89 -66 -151.5t-153 -62.5z" />
    <glyph glyph-name="A" unicode="A" 
d="M237 468q-9 -2 -17 1t-13 10t-5 15v101l1 2h100q14 0 22.5 -11t3.5 -24q-3 -12 -7.5 -22.5t-11 -19.5t-14.5 -17t-17.5 -15t-20 -12t-21.5 -8z" />
    <glyph glyph-name="B" unicode="B" 
d="M237 468q-9 -2 -17 1t-13 10t-5 15v101l1 2h100q14 0 22.5 -11t3.5 -24q-3 -12 -7.5 -22.5t-11 -19.5t-14.5 -17t-17.5 -15t-20 -12t-21.5 -8zM202 254v76q0 11 7.5 19t17.5 9q84 9 145 69t70 143q1 11 9 18t19 7h76q12 0 20.5 -8.5t6.5 -20.5q-11 -136 -108 -232
t-234 -107q-21 -2 -28 18q-1 5 -1 9z" />
    <glyph glyph-name="C" unicode="C" 
d="M237 468q-9 -2 -17 1t-13 10t-5 15v101l1 2h100q14 0 22.5 -11t3.5 -24q-3 -12 -7.5 -22.5t-11 -19.5t-14.5 -17t-17.5 -15t-20 -12t-21.5 -8zM202 254v76q0 11 7.5 19t17.5 9q84 9 145 69t70 143q1 11 9 18t19 7h76q12 0 20.5 -8.5t6.5 -20.5q-11 -136 -108 -232
t-234 -107q-21 -2 -28 18q-1 5 -1 9zM202 9v76q0 11 7.5 18.5t18.5 8.5q92 5 175.5 43t145 98.5t100 143t43.5 173.5q0 6 2.5 10.5t6.5 8.5t8.5 6t10.5 2h76q12 0 20.5 -9t7.5 -21q-6 -116 -54.5 -222t-127 -184t-185.5 -126t-224 -54q-13 -1 -22 7t-9 21z" />
    <glyph glyph-name="D" unicode="D" 
d="M787 468q7 -2 13 -0.5t11 5t8 9.5t3 12v101l-1 2h-100q-14 0 -22.5 -11t-3.5 -24q2 -9 5.5 -17t7.5 -15.5t9 -14t11 -12.5t13 -11.5t14 -10t15.5 -8t16.5 -5.5z" />
    <glyph glyph-name="E" unicode="E" 
d="M787 468q7 -2 13 -0.5t11 5t8 9.5t3 12v101l-1 2h-100q-14 0 -22.5 -11t-3.5 -24q2 -9 5.5 -17t7.5 -15.5t9 -14t11 -12.5t13 -11.5t14 -10t15.5 -8t16.5 -5.5zM822 254v76q0 11 -7.5 19t-17.5 9q-84 9 -145 69t-70 143q-1 11 -9 18t-19 7h-76q-12 0 -20.5 -8.5
t-6.5 -20.5q11 -136 108 -232t234 -107q21 -2 28 18q1 5 1 9z" />
    <glyph glyph-name="F" unicode="F" 
d="M787 468q7 -2 13 -0.5t11 5t8 9.5t3 12v101l-1 2h-100q-14 0 -22.5 -11t-3.5 -24q2 -9 5.5 -17t7.5 -15.5t9 -14t11 -12.5t13 -11.5t14 -10t15.5 -8t16.5 -5.5zM822 254v76q0 11 -7.5 19t-17.5 9q-84 9 -145 69t-70 143q-1 11 -9 18t-19 7h-76q-12 0 -20.5 -8.5
t-6.5 -20.5q11 -136 108 -232t234 -107q21 -2 28 18q1 5 1 9zM822 9v76q0 5 -2 10t-5.5 8.5t-8.5 6t-10 2.5q-123 7 -227 69t-167 165t-70 224q-1 11 -9 19t-19 8h-76q-12 0 -20.5 -9t-7.5 -21q6 -116 54.5 -222t127 -184t185.5 -126t224 -54q23 -2 30 19q1 4 1 9z" />
    <glyph glyph-name="G" unicode="G" 
d="M790 -31q-11 -5 -22 0l-530 313q-2 2 -3 4t0 4.5t3 4.5l530 313q11 6 22 0v-639z" />
    <glyph glyph-name="a" unicode="a" 
d="M512 639q-96 0 -176.5 -47t-127.5 -127.5t-47 -176.5q0 -71 27 -135t75 -112v-75q0 -12 9 -20.5t21 -8.5h219q96 0 176.5 47t127.5 127.5t47 176.5t-47 176.5t-127.5 127.5t-176.5 47zM321.5 259q-18.5 0 -31 12.5t-12.5 31t12.5 31.5t31.5 13q12 0 22 -6t16 -16t6 -22
q0 -19 -13 -31.5t-31.5 -12.5zM512 259q-9 0 -17 3.5t-14 9t-9.5 13.5t-3.5 18q0 18 12.5 31t31.5 13q12 0 22 -6t16 -16t6 -22q0 -19 -12.5 -31.5t-31.5 -12.5zM716.5 259q-18.5 0 -31 12.5t-12.5 31t12.5 31.5t31.5 13q12 0 22 -6t16 -16t6 -22q0 -19 -13 -31.5
t-31.5 -12.5z" />
    <glyph glyph-name="b" unicode="b" 
d="M819 23v-64q0 -15 -14 -15h-161q-92 0 -158 62q123 17 206 112t83 221v12v10q0 6 -1 12q48 -32 76 -83.5t28 -111.5q0 -44 -15.5 -83t-43.5 -72zM458 48q-1 0 -2 -1h-3h-190q-12 0 -20.5 8.5t-8.5 20.5v54q-41 40 -64.5 94.5t-23.5 114.5q0 121 86 207t207 86t206.5 -86
t85.5 -207q0 -124 -89 -210q-77 -73 -184 -81zM336 398q-6 0 -11.5 -1.5t-10.5 -4.5t-9 -7t-6.5 -9t-4 -10.5t-1.5 -11.5q0 -9 3 -17.5t9 -14t14 -9t17 -3.5q7 0 12.5 1.5t10.5 4.5t9 7t6.5 8.5t4 10.5t1.5 12q0 9 -3 17t-9 14t-14 9.5t-18 3.5zM541 398q-6 0 -11.5 -1.5
t-10.5 -4.5t-9 -7t-7 -9t-4.5 -10.5t-1.5 -11.5t1.5 -12t4.5 -10.5t7 -8.5t9 -7t10.5 -4.5t11.5 -1.5q9 0 17.5 3.5t14 9t9 14t3.5 17.5q0 18 -12.5 31t-31.5 13z" />
    <glyph glyph-name="c" unicode="c" 
d="M759 38q2 -5 2 -13v-59q0 -12 -9 -20.5t-21 -8.5h-248q-2 0 -4 0.5t-4 0.5q-133 15 -223.5 115t-90.5 235q0 96 47 176.5t127.5 127.5t176.5 47t176.5 -47t127.5 -127.5t47 -176.5q0 -146 -104 -250zM512 83q19 0 31.5 12.5t12.5 31.5q0 12 -6 22t-16 16t-22 6t-22 -6
t-16 -16t-6 -22q0 -19 12.5 -31.5t31.5 -12.5zM594 453q-12 9 -24 14.5t-27 9t-31 3.5q-19 0 -37.5 -5.5t-34.5 -13.5q-10 -7 -19 -17.5t-14.5 -23.5t-8.5 -26t-3 -26q0 -9 11 -17.5t23 -8.5q11 0 20.5 7.5t11.5 18.5q0 18 12 37q10 18 38 18q27 0 38 -15q10 -12 10 -31
q0 -14 -9 -28q-1 -2 -3 -4l-5 -5q-2 -2 -5 -4l-16 -13q-21 -17 -28 -36q-6 -16 -6 -44q0 -9 4 -16.5t11 -12t16 -4.5q7 0 13.5 3t10.5 9t4 15q0 6 0.5 14t2.5 12q2 7 6.5 13t10.5 11l16 13q9 7 15 12t11 10l8 8q7 10 10.5 22.5t3.5 27.5q0 13 -2.5 23.5t-7 19.5t-11 16.5
t-15.5 13.5z" />
    <glyph glyph-name="d" unicode="d" 
d="M512 -5q-121 0 -207 86t-86 207q0 79 39.5 146.5t107 107t146.5 39.5q59 0 113.5 -23.5t93.5 -62.5t62.5 -93.5t23.5 -113.5q0 -121 -86 -207t-207 -86zM343.5 420q-15.5 0 -26 -11t-10.5 -26t10.5 -25.5t26 -10.5t26 10.5t10.5 25.5t-10.5 26t-26 11zM519.5 420
q-15.5 0 -26 -11t-10.5 -26t10.5 -25.5t26 -10.5t26 10.5t10.5 25.5t-10.5 26t-26 11zM670 423q0 2 -1 4.5t-2.5 4t-4 2t-4.5 0.5q-3 0 -5.5 -1.5t-4 -4.5t-1.5 -5l-57 -139q-19 -24 -19 -53q0 -36 25.5 -62t61.5 -26t62 26t26 62q0 28 -19 54z" />
    <glyph glyph-name="e" unicode="e" 
d="M790 25h-556q-12 0 -20.5 8.5t-8.5 20.5v468q0 8 4 14.5t10.5 10.5t14.5 4h556q8 0 14.5 -4t10.5 -10.5t4 -14.5v-468q0 -12 -8.5 -20.5t-20.5 -8.5zM336 478q-11 0 -22 -4.5t-19 -12.5t-12.5 -18.5t-4.5 -22.5q0 -16 8 -29.5t21.5 -21.5t28.5 -8q12 0 23 4.5t19 12.5
t12.5 19t4.5 23q0 9 -3 18t-8.5 16t-12.5 12.5t-16 8.5t-19 3zM541 244q0 6 -6 3q-1 3 -3.5 5t-5.5 3.5t-6.5 2.5t-7.5 1t-7.5 -1t-6.5 -2.5t-5.5 -3.5t-3.5 -5q-6 3 -6 -3l-234 -161q0 -2 0.5 -4.5t2 -4.5t3 -3t4 -1.5t4.5 -0.5h498q14 0 14 14z" />
    <glyph glyph-name="f" unicode="f" 
d="M796 98l-167 105v-61q0 -12 -8.5 -21t-20.5 -9h-366q-12 0 -20.5 9t-8.5 21v278q0 12 8.5 20.5t20.5 8.5h366q12 0 20.5 -8.5t8.5 -20.5v-47l167 105h3h9q2 0 5.5 -1t4.5 -3.5t1 -7.5v-355q0 -4 -1 -6.5t-3 -4t-5.5 -2t-5.5 -0.5h-8zM486 298q0 4 -30.5 23t-60.5 36
l-31 17q-5 0 -9 -3.5t-4 -9.5v-151q0 -5 4 -9t9 -4q122 69 122 75v1q4 0 7.5 3.5t3.5 8.5q0 7 -3 10t-8 3z" />
    <glyph glyph-name="g" unicode="g" 
d="M292.5 361q30.5 0 52 -21t21.5 -52q0 -15 -6 -28.5t-15.5 -23.5t-23 -15.5t-28.5 -5.5q-11 0 -20.5 2.5t-17.5 7t-14.5 11.5t-11 15t-7.5 17.5t-3 19.5q0 31 21.5 52t52 21zM512 361q20 0 37 -9.5t26.5 -26.5t9.5 -37q0 -15 -5.5 -28.5t-15.5 -23.5t-23.5 -15.5
t-28.5 -5.5q-31 0 -52 21t-21 52t21 52t52 21zM731 361q31 0 52.5 -21t21.5 -52q0 -12 -4 -23.5t-10.5 -20t-15.5 -15.5t-20 -10.5t-24 -3.5q-30 0 -51.5 21t-21.5 52q0 20 10 37t26.5 26.5t36.5 9.5z" />
    <glyph glyph-name="h" unicode="h" 
d="M718 494q7 -6 10 -14.5t3 -16.5t-3 -16t-10 -14l-351 -351q-13 -13 -31 -13t-30 13q-9 8 -12 19.5t0 22.5t12 19l351 351q22 23 50 9q6 -3 11 -9zM367 494l351 -351q9 -8 12 -19.5t0 -22.5t-12 -19q-13 -13 -31 -13t-30 13l-351 351q-7 6 -10 14.5t-3 16.5t3 16t10 14
q6 7 14 10t16 3t16.5 -3t14.5 -10z" />
    <glyph glyph-name="i" unicode="i" 
d="M614 244h-29v88h29q25 0 42 17t17 41.5t-17 41.5t-41.5 17t-41.5 -17t-17 -42v-29h-88v29q0 12 -4.5 23t-12.5 19t-19 12.5t-22 4.5q-16 0 -29.5 -8t-21.5 -21.5t-8 -29.5q0 -11 4.5 -22t12.5 -19t19 -12.5t23 -4.5h29v-88h-29q-25 0 -42 -17t-17 -41.5t17 -41.5
t41.5 -17t41.5 17t17 42v29h88v-29q0 -8 2 -15.5t6 -14t9 -12t11.5 -9.5t14 -6t15.5 -2q25 0 42 17t17 41.5t-17 41.5t-42 17zM585 390q0 12 8.5 21t20.5 9q8 0 15 -4t11 -11t4 -15q0 -12 -9 -20.5t-21 -8.5h-29v29zM410 361q-5 0 -9.5 1.5t-8 4.5t-6.5 6.5t-4.5 8t-1.5 9
t1.5 9t4.5 8t6.5 6.5t8 4.5t9 1.5t9 -1.5t8 -4.5t6.5 -6.5t4.5 -8t1.5 -9.5v-29h-29zM439 186q0 -8 -4 -15t-10.5 -11t-14.5 -4q-3 0 -5 0.5t-4.5 1.5t-4.5 2t-3.5 2t-3.5 3t-3 3.5t-2 3.5t-2 4.5t-1.5 4.5t-0.5 5q0 8 4 14.5t11 10.5t15 4h29v-29zM556 244h-88v88h88v-88z
M614 156q-12 0 -20.5 9t-8.5 21v29h29q8 0 15 -4t11 -10.5t4 -14.5t-4 -15t-11 -11t-15 -4z" />
    <glyph glyph-name="j" unicode="j" 
d="M658 171v410q0 12 -8.5 20.5t-20.5 8.5h-410q-12 0 -20.5 -8.5t-8.5 -20.5v-410q0 -12 8.5 -20.5t20.5 -8.5h410q8 0 14.5 4t10.5 10.5t4 14.5zM543 469h-84v-229h-58v229h-84v50h227v-50h-1zM805 434h-103v-307q0 -12 -8.5 -20.5t-20.5 -8.5h-307v-103q0 -7 4 -14
t10.5 -11t14.5 -4h410q7 0 14 4t11 11t4 14v410q0 12 -8.5 20.5t-20.5 8.5z" />
    <glyph glyph-name="k" unicode="k" 
d="M658 581q0 12 -8.5 20.5t-20.5 8.5h-410q-12 0 -20.5 -8.5t-8.5 -20.5v-410q0 -12 8.5 -20.5t20.5 -8.5h103v307q0 12 8.5 20.5t20.5 8.5h307v103zM626 289h-53v-81h53q21 0 31 10q12 11 12 32t-12 31q-11 8 -31 8zM805 434h-410q-5 0 -9.5 -1.5t-8 -4t-6 -6t-4 -8
t-1.5 -9.5v-410q0 -7 4 -14t10.5 -11t14.5 -4h410q12 0 20.5 8.5t8.5 20.5v410q0 12 -8.5 20.5t-20.5 8.5zM701 180q-25 -21 -71 -21h-58v-101h-59v280h120q42 0 66 -22q13 -11 19 -28t6 -39q2 -50 -23 -69z" />
    <glyph glyph-name="x" unicode="x" horiz-adv-x="1001" 
d="M281 543q-27 -1 -53 -1h-83q-18 0 -36.5 -6t-32.5 -18.5t-23 -32t-9 -45.5v-76h912v41q0 16 -0.5 30t-0.5 18q0 13 -5 29t-17 29.5t-31.5 22.5t-49.5 9h-133v-97h-438v97zM955 310v-52q0 -23 0.5 -52t0.5 -58t-10.5 -47.5t-26 -30t-33 -16t-31.5 -4.5q-14 -1 -29.5 -0.5
t-29.5 0.5h-32l-45 128h-439l-44 -128h-29h-34q-20 0 -45 1q-25 0 -41 9.5t-25.5 23t-13.5 29.5t-4 30v167h911zM163 247q-12 0 -21 -8.5t-9 -21.5t9 -21.5t21 -8.5q13 0 22 8.5t9 21.5t-9 21.5t-22 8.5zM316 123q-8 -26 -14 -48q-5 -19 -10.5 -37t-7.5 -25t-3 -15t1 -14.5
t9.5 -10.5t21.5 -4h37h67h81h80h64h36q23 0 34 12t2 38q-5 13 -9.5 30.5t-9.5 34.5q-5 19 -11 39h-368zM336 498v228q0 11 2.5 23t10 21.5t20.5 15.5t34 6h188q31 0 51.5 -14.5t20.5 -52.5v-227h-327z" />
  </font>
</defs>
</svg>
